<?xml version="1.0" encoding="utf-8"?>
<!-- Generator: Adobe Illustrator 22.1.0, SVG Export Plug-In . SVG Version: 6.00 Build 0)  -->
<svg version="1.1" id="Calque_1" xmlns="http://www.w3.org/2000/svg" xmlns:xlink="http://www.w3.org/1999/xlink" x="0px" y="0px"
	 viewBox="0 0 113 78.7" style="enable-background:new 0 0 113 78.7;" xml:space="preserve">
<style type="text/css">
	.st0{fill:#9C7F72;}
</style>
<path class="st0" d="M35.1,45.7L45.4,58c1,1.2,2.4,1.8,3.9,1.8h34.6c1.5,0,3-0.7,3.9-2l11.6-15.7c1.2-1.6,1.2-3.8,0.1-5.5L89.2,21
	c-0.9-1.3-2.4-2.2-4-2.2H47.1c-1.6,0-3.2,0.8-4.1,2.1l-8.3,11.6L25,21.1c-1.1-1.4-2.8-2.2-4.6-2.2h-7.7l17.1,20.5L15.1,59.8h6.7
	c2.1,0,4-1,5.2-2.7L35.1,45.7z M48.7,26.8h34.6l8.2,12.4l-9.3,12.7H50.8L40,39L48.7,26.8z"/>
</svg>
